# xmcd
#
# Track frame offsets:
#	150
#	16155
#	29552
#	41393
#	50758
#	68413
#	81082
#	93044
#	109401
#	119375
#	129435
#	151370
#	174703
#	186168
#	193935
#	206683
#	217420
#	229086
#	240856
#	253507
#
# Disc length: 3508 seconds
#
# Revision: 0
# Processed by: cddbd v1.5.2PL0 Copyright (c) Steve Scherf et al.
# Submitted via: audiograbber 1.82.02
#
DISCID=150db214
DTITLE=Various Artist - Country Roads Vol 12
DYEAR=1999
DGENRE=Country
TTITLE0=Willie Nelson - Always On My Mind
TTITLE1=Jimmy Dean - Big Bad John
TTITLE2=Donna Fargo - Funny Face
TTITLE3=Roger Miller - Chug A Lug
TTITLE4=Johnny Lee - Looking For Love
TTITLE5=Bobby Bare - Four Strong Winds
TTITLE6=Connie Francis - Everybody's Somebody's Fool
TTITLE7=John Denver - Farewell Andromeda
TTITLE8=Gen Campell and Herb Alpert - It's A Good Thing
TTITLE9=Brenda Lee - I'm Sorry
TTITLE10=The Marshall Tucker Band - Heard It In A Love Song
TTITLE11=Rita Coolidge - I'm Still Learning About Love
TTITLE12=Wanda Jackson - In The Middle Of A Heartache
TTITLE13=Bill Monroe - Footprints In The Snow
TTITLE14=Dolly Parton - Little Blossom
TTITLE15=Ricky Nelson - Travellin'man
TTITLE16=George Jones - White Lightning
TTITLE17=Merle Haggard - Okie From Muskogee
TTITLE18=Everly Brothers - Bye, Bye Love
TTITLE19=Billy Swan - I Can Help
EXTD=
EXTT0=
EXTT1=
EXTT2=
EXTT3=
EXTT4=
EXTT5=
EXTT6=
EXTT7=
EXTT8=
EXTT9=
EXTT10=
EXTT11=
EXTT12=
EXTT13=
EXTT14=
EXTT15=
EXTT16=
EXTT17=
EXTT18=
EXTT19=
PLAYORDER=
